<?xml version="1.0" encoding="UTF-8" standalone="no"?><!DOCTYPE svg PUBLIC "-//W3C//DTD SVG 1.1//EN" "http://www.w3.org/Graphics/SVG/1.1/DTD/svg11.dtd"><svg width="100%" height="100%" viewBox="0 0 540 512" version="1.1" xmlns="http://www.w3.org/2000/svg" xmlns:xlink="http://www.w3.org/1999/xlink" xml:space="preserve" xmlns:serif="http://www.serif.com/" style="fill-rule:evenodd;clip-rule:evenodd;stroke-linejoin:round;stroke-miterlimit:2;"><g id="Logotype"><g id="Outer-A" serif:id="Outer A"><path d="M256,0l-199.648,512l-56.352,-0l199.648,-512l56.352,0Z"/><path d="M200,0l199.648,512l56.352,-0l-199.648,-512l-56.352,0Z"/><path d="M284,0l199.648,512l56.352,0l-199.648,-512l-56.352,0Z"/><path d="M455.99,512l28.011,0l-21.992,-56.4l-28.009,0.007l21.99,56.393Z"/><path d="M277.989,56.4l28.011,0l-21.992,-56.4l-28.009,0.007l21.99,56.393Z"/></g><g id="Inner-A" serif:id="Inner A"><path d="M84.01,512l-28.011,0l21.992,-56.4l28.009,0.007l-21.99,56.393Z"/><path id="Inner-1" serif:id="Inner 1" d="M202.742,352l-62.742,160l-56,0l143.497,-368l82.113,208l-106.868,0Z"/></g></g></svg>